<svg width="27" height="27" viewBox="0 0 27 27" fill="none" xmlns="http://www.w3.org/2000/svg">
<g clip-path="url(#clip0_907_3653)">
<path d="M13.5 0C10.8158 0.00356069 8.24251 1.07144 6.34448 2.96948C4.44644 4.86751 3.37856 7.44078 3.375 10.125C3.375 17.3939 12.8081 26.498 13.2089 26.8819C13.2869 26.9576 13.3913 27 13.5 27C13.6087 27 13.7131 26.9576 13.7911 26.8819C14.1919 26.498 23.625 17.3939 23.625 10.125C23.6214 7.44078 22.5536 4.86751 20.6555 2.96948C18.7575 1.07144 16.1842 0.00356069 13.5 0V0ZM13.5 14.7656C12.5822 14.7656 11.685 14.4935 10.9218 13.9835C10.1587 13.4736 9.56386 12.7489 9.21262 11.9009C8.86138 11.0529 8.76948 10.1199 8.94854 9.21966C9.1276 8.31947 9.56958 7.49259 10.2186 6.84358C10.8676 6.19458 11.6945 5.7526 12.5947 5.57354C13.4949 5.39448 14.4279 5.48638 15.2759 5.83762C16.1239 6.18886 16.8486 6.78366 17.3585 7.54681C17.8685 8.30995 18.1406 9.20717 18.1406 10.125C18.1399 11.3555 17.6507 12.5355 16.7806 13.4056C15.9105 14.2757 14.7305 14.7649 13.5 14.7656Z" fill="#AB85FF"/>
</g>
<defs>
<clipPath id="clip0_907_3653">
<rect width="27" height="27" fill="white"/>
</clipPath>
</defs>
</svg>
