<svg xmlns="http://www.w3.org/2000/svg" xmlns:xlink="http://www.w3.org/1999/xlink" width="500" zoomAndPan="magnify" viewBox="0 0 375 374.999991" height="500" preserveAspectRatio="xMidYMid meet" version="1.0"><defs><clipPath id="3b14edb860"><path d="M 45.65625 45.65625 L 329.34375 45.65625 L 329.34375 329.34375 L 45.65625 329.34375 Z M 45.65625 45.65625 " clip-rule="nonzero"/></clipPath><clipPath id="cda4775df8"><path d="M 187.5 45.65625 C 109.164062 45.65625 45.65625 109.164062 45.65625 187.5 C 45.65625 265.835938 109.164062 329.34375 187.5 329.34375 C 265.835938 329.34375 329.34375 265.835938 329.34375 187.5 C 329.34375 109.164062 265.835938 45.65625 187.5 45.65625 " clip-rule="nonzero"/></clipPath><clipPath id="dc61fbcc00"><path d="M 94 92 L 282 92 L 282 281 L 94 281 Z M 94 92 " clip-rule="nonzero"/></clipPath><clipPath id="a16898c81c"><path d="M 71.714844 199.285156 L 187.855469 83.140625 L 303.46875 198.753906 L 187.324219 314.894531 Z M 71.714844 199.285156 " clip-rule="nonzero"/></clipPath><clipPath id="9c1316674c"><path d="M 71.714844 199.285156 L 187.855469 83.140625 L 303.46875 198.753906 L 187.324219 314.894531 Z M 71.714844 199.285156 " clip-rule="nonzero"/></clipPath><clipPath id="aec659c124"><path d="M 71.714844 199.285156 L 187.855469 83.140625 L 303.46875 198.753906 L 187.324219 314.894531 Z M 71.714844 199.285156 " clip-rule="nonzero"/></clipPath></defs><g clip-path="url(#3b14edb860)"><g clip-path="url(#cda4775df8)"><path fill="#f82249" d="M 45.65625 45.65625 L 329.34375 45.65625 L 329.34375 329.34375 L 45.65625 329.34375 Z M 45.65625 45.65625 " fill-opacity="1" fill-rule="nonzero"/></g></g><g clip-path="url(#dc61fbcc00)"><g clip-path="url(#a16898c81c)"><g clip-path="url(#9c1316674c)"><g clip-path="url(#aec659c124)"><path fill="#ffffff" d="M 94.738281 221.753906 L 94.503906 212.265625 C 94.507812 206.84375 100.011719 203.214844 100.011719 203.214844 L 115.414062 191.519531 L 115.570312 177.949219 C 115.636719 170.789062 124.324219 172.949219 124.777344 176.242188 L 125.347656 183.855469 L 142.636719 171.964844 L 141.824219 161.242188 C 140.792969 149.628906 150.429688 151.386719 151.390625 157.125 L 152.238281 164.371094 L 177.015625 145.304688 C 177.746094 108.328125 177.921875 93.113281 187.347656 92.625 C 196.835938 92.125 196.964844 109.917969 197.464844 144.761719 L 223.148438 164.210938 L 223.921875 155.792969 C 224.375 150.824219 232.808594 149.628906 232.546875 159.3125 L 232.179688 171.582031 L 249.617188 183.6875 L 250.53125 176.707031 C 251.246094 170.445312 259.144531 169.886719 259.464844 179.625 L 259.503906 192.210938 C 259.4375 192.660156 274.507812 203.121094 274.507812 203.121094 C 282.183594 207.953125 280.9375 213.773438 280.9375 213.773438 L 280.382812 221.828125 L 217.84375 192.015625 C 212.425781 189.3125 204.574219 188.332031 199.359375 194.597656 C 196.648438 197.953125 194.152344 210.785156 194.34375 213.046875 L 193.648438 247.839844 C 193.515625 248.613281 218.539062 267.269531 218.539062 267.269531 C 219.183594 267.914062 220.925781 280.910156 220.925781 280.910156 L 189.6875 272.164062 L 186.71875 280.292969 L 184.914062 271.996094 L 153.253906 280.824219 L 155.296875 267.683594 C 159.75 264.910156 180.832031 248.085938 181.027344 247.503906 C 181.027344 247.503906 181.167969 216.773438 181.125 214.96875 C 180.871094 204.515625 180.585938 200.800781 178.714844 197.382812 C 176.84375 193.957031 171.644531 191.402344 158.734375 194.496094 C 140.921875 198.761719 94.738281 221.753906 94.738281 221.753906 Z M 94.738281 221.753906 " fill-opacity="1" fill-rule="nonzero"/></g></g></g></g></svg>